<svg id="Layer_1" data-name="Layer 1" xmlns="http://www.w3.org/2000/svg" width="644" height="821.2889" viewBox="0 0 644 821.2889"><title>barbados</title><path id="Christ_Church" data-name="Christ Church" d="M397.3067,768.7208l72.8073-35.2891,38.4031-18.2582,1.1938-.601,49.156-24.82,57.8969-28.2764,48.3212-23.0085,3.4395,2.9554L687.1584,664.69l36.9588,46.184,19.06,24.7032,26.7986,32.4673-.768,1.461-1.5362,1.57h-1.5444l-.7764,1.57h-1.5362l-1.5444,1.5611v.7681h-1.5612l-.76,1.57h-2.3209v.8348h-2.3042l-1.5528,1.5612-.768,1.57-1.5278,1.5612v.7931l-1.5528.7764v1.57l-.7764.7932h-1.5278l-.7681,1.5611-1.5444.7764h-2.3126v.7848h-1.5695v1.57l-.7681.7848H739.12l-.7764,1.57h-1.5445l-1.5444.7764-1.5362,2.3626h-3.0639v.7765l-1.5445,1.57h-4.625v-.7848H722.172v-.7847h-6.9376v.7847h-5.4516l-.76.7848v1.5695l-1.5444.7848v2.3459l-.7681.7847-3.0806,1.57v1.57l-1.5444,3.1307L700.6,811.8242l-2.3209,4.7085-1.5361.7765v1.5695l-1.5445.7764-1.5445,1.57v3.1391l-2.3292,1.536v1.57l-1.5445.7847v4.7086h-.768v2.3459l-1.5362.7848v1.5695l-.7764.7848H684.395l-1.5444-2.3543h-1.5445l-.7764.7764h-2.3042l-1.5445,1.57v.8349h-2.3042l-1.5528.7764-.7681,1.5695h-3.0806v.7848h-2.3042l-.7764,1.5695H664.35v.7847l-1.5362.7764h-3.1223v.7848l-1.5361,1.5695-3.089,1.5612v.7848h-1.5361l-.7681,1.57h-4.6334V854.16l-.768.7847h-1.5362L644.28,857.29h-4.625l-.7764-1.5612-1.5278-1.57-.768.7847h-3.0806l-.7765,1.57h-3.857l-.768.7764V858.86l-.7764.7847h-8.44l-.7764-1.57h-1.5361l-.7681-1.5611h-4.6251v-.7848l-1.5444-.7848h-2.3126l-.7764-1.57h-2.3125l-1.5361-.7764v-2.3626l-1.5445-1.57h-.7347l-.7513-1.57v-1.5779H598.89V835.3335l-3.0973-5.4849h-1.5278v-.8349l-1.5445-.7764V825.9h-.768v-4.6751h-.7681v-2.3459l-.7764-.7848h-1.5445v-1.5612l-1.5445-.7931h-2.3459l-1.5445-2.3626v-1.5695h-1.5361l-.7764-1.57-2.3125-2.3542h-2.3126v.7847h-4.6251v-1.5611h-1.5027v-.7848H568.05V804.778h-3.8487l-.7764-1.5778H559.51v-.7848h-4.5917v-.7848l-1.5445-.7764h-4.6251V800.07h-4.6251v.7847H538.73v1.5612h-2.3209v-.7848h-4.6167l-1.5445.7848V803.2H527.176v-.7848h-1.5528l-.7764,1.57-1.5278.8349h-2.3125v.7764h-4.6251l-1.5361-.7764-.7764-1.5779h-2.3126v-.7848h-2.3376v-2.3459l-2.3125-2.3543h-6.8708v.7848H495.61l-.7764-1.5695H492.53v-.7764h-2.3209l-2.2958-1.57v-1.57H486.36l-1.5361-.7848v-.7847h-2.3125v-.7848h-7.7057v-.7847h-1.5445l-.768-1.57-2.3126-2.3375h-2.3125v-.7931h-6.17v-.7765h-4.6251l-2.3125-2.3626v-1.5612l-.7681-.7847h-2.3459v-.7848h-6.946v.7848h-4.625l-.7681-1.5695H429.2731v.7847h-3.8487l-2.3209-1.5612h-3.0806v-.8348h-1.5444l-1.5362-.7764-.7764-1.57h-1.5444v-.8349l-1.5278-.768h-4.6084v-.8349h-3.0889v-.7764h-2.3126v-.8348h-3.0806Z" transform="translate(-278 -39.3556)" fill="#fff" fill-opacity="0" stroke="#000" stroke-linejoin="round" stroke-width="2"/><path id="Saint_Andrew" data-name="Saint Andrew" d="M582.66,325.8243l-8.2818,4.7921-17.2062,12.3307-28.9193,19.8694-8.9829,6.7623-30.2049,42.1433-1.4527-.7931-12.9068-7.5554-17.9743-9.9264-11.3373-6.7706-12.5227-5.5685-6.8959-3.4145-6.971-53.43-.9016-5.0091.5092-.1336,16.0292-75.9714,32.0332-46.5262,19.9445-28.243,8.9329-11.93.7681,1.5778,1.5445.7848.7681,1.5612v7.0712l1.5445,1.5528,1.5444.7931.7681,1.57v1.57l.7681,1.5612,1.5445.7848v1.57l2.3125,2.3543.7681,1.5611,1.5444,1.57v4.7085h.8265v3.9155h-2.3209l-.7681.7847v3.1391l1.5445.7847.71,1.5946v3.9154h.8349v4.7086h-.8349v2.3459l.7764.7931h1.5362l.768,1.57v3.1391h.7764v3.9154l1.5445,2.3543,2.3042,2.3543v2.3543l.7764.7764h1.5361l1.5362,1.57v6.27l.768.7848h2.3042v-.7848h2.3209l2.3042,1.57v2.3543h-.7681v3.139l.7681,1.57,1.5445.7847.7764,1.5612v3.139h-1.5362l-.7764.7931v7.0545l.7764,1.57h.8349v2.3376l.7764,1.5779h1.5361v1.57l1.5445.7764v.7931h4.6251l1.5444,1.5612.76,1.57v2.3543h.7764v2.3543l.768.7764v1.5361h-1.5444l-3.0806,1.57v2.3459h-.7681v2.3543h3.8486v-.7847h5.4015l1.5445.7847v1.57l1.5361.7847v2.3459l1.5445,1.57h1.5445l4.6251,2.3626v1.5528l3.857,2.3626,1.5277,1.57h.7681V297.59h1.5528v2.3543l2.3042,2.3459h1.5445l.7764.7848v3.139l1.5361.7848v5.4682l.7681,1.5612h3.857l2.3125,2.3626.7681,1.57v6.27h1.5361Z" transform="translate(-278 -39.3556)" fill="#fff" fill-opacity="0" stroke="#000" stroke-linejoin="round" stroke-width="2"/><path id="Saint_George" data-name="Saint George" d="M679.97,606.1254,666.379,637.85l-1.3191.6345-48.3211,23.0085-57.8969,28.26-49.156,24.82-1.01-3.3394-11.6294-50.834-17.59-70.8955-7.7475-33.26-3.0054-12.1722,81.4229-29.7958,35.5981-35.3977,5.318,8.6157,20.42,27.2078,23.9435,31.5156Z" transform="translate(-278 -39.3556)" fill="#fff" fill-opacity="0" stroke="#000" stroke-linejoin="round" stroke-width="2"/><path id="Saint_James" data-name="Saint James" d="M380.8518,577.156l.0584.7264L323.0718,600.54l-3.999,1.0352-.7764-.5844v-3.9238h-.7681l-1.5277-1.5862v-2.3375h-.7764v-6.2614h-.7681V583.743H313.68l-.7681-1.57v-2.3459h-.768v-5.485h.768V563.3643h.7681v-3.139h.7764V556.31H313.68v-3.9155h.7764v-3.139h.7681v-2.3627h.7764v-2.3376h.76v-4.7085h-.76v-2.3543h-.7764v-4.7h-.7681v-2.3543H313.68v-3.1307h.7764v-3.139h.7681v-2.346h.7764V519.46h.76v-5.4766h-1.5361v-1.5695l-1.5445-.7848-1.5361-3.139.768-1.57v-4.7h1.5445l.7681-.7764v-1.5779h.7764V497.528h-.7764v-5.5017h-.7681V489.68h-1.5445l-.768-1.57h-1.5445v-2.3543h-.7681v-3.9155h.7681v-6.27h-.7681v-5.4933h.7681v-4.7l1.5445-.7932v-4.6918h.768v-3.1391h.7681l.7764-1.57-1.5445-3.139-1.5361-1.5612v-1.57l-2.3209-1.5694H306.75V446.56H305.206v-5.5267h.768V437.11h-.768V434.764H304.43l-1.5277-3.1391V430.047h-.7681v-3.1307h-.7848v-3.9154l1.5529-3.1307,1.5277-1.5779h.7765v-3.139l1.5444-.7764v-4.7086h.7681v-7.0377h.768V392.4454l-1.5361-.7848v-2.3543l-1.5444-.7847v-3.9238H304.43v-9.3837h.7765v-2.3459l-1.5278-1.57h-.7764l-.7681-1.57v-2.3543h.7681l1.5277-3.1474v-3.9321h-.7513v-3.1307h-.7764v-2.3459h-.7681v-2.3459h-.7848l-.05-1.5779v-.2l30.9646-8.9663,29.3116-8.3485,10.5441-1.2021,46.0086-12.9736.9017,5.0091,6.971,53.43-2.2792,5.41L419.03,397.371l-4.6919,17.0978L371.76,456.6037l3.5231,45.7164,2.73,33.7864Z" transform="translate(-278 -39.3556)" fill="#fff" fill-opacity="0" stroke="#000" stroke-linejoin="round" stroke-width="2"/><path id="Saint_John" data-name="Saint John" d="M816.9526,472.758,774.467,513.24l-68.65,67.6813-25.88,25.2125-44.5643-59.9506-23.9435-31.5156L591.042,487.4514l-5.3179-8.6157,25.3043-25.1541,42.761-41.8677L672.6821,393.23h2.5045l.7681,1.5612h1.5278l.7764,1.57,1.5445.7848,1.5361,1.57v2.3459l.768,1.57h.7765l2.3041,2.3543v.7847l3.089,3.1391h1.4693l1.5445,1.57.7764,1.57v1.5612l.7681.7847h3.0889l.7681,1.57h1.5361l.7764.7764v1.57l1.5445.7847v.7932l3.0806,1.5611,1.5444,1.57,1.5362.7847h1.5444l.7681,1.5779h1.5946l1.5444,1.57.7848,1.57h3.8486v-.7847h3.0806V426.95h1.5445v-.7847l1.5361-.7848h3.8487v.7848h2.3209l1.5445.7847.76,1.57,2.3209,1.5612v1.5779h.768v4.7086h.7681v7.8309l1.5444,1.57h1.5445l.7764,1.57,1.5361.7848h3.0723v-.7848h7.7223l.7514,1.57h1.5445l1.5528.7848v.7847h3.0806l.768,1.57v2.3458l.7764,1.5779h1.5362l.768,1.57h1.5445l1.5361.7848V459.1h2.3209l2.3042,2.3542v1.57l1.5445.7847h1.5444l.7681.7764v1.57l1.5444,1.5778h1.5445l1.5361.7848v.7848h1.5445v1.57h1.5444l.76,1.5612,1.5528.7764v1.5695h1.5445l.7514.8348v1.57l.7764.7764h8.482v-.7764h3.089L800.03,474.82v-1.57l1.5445-.7764v-.8349h3.8486l2.3126-2.3459v-.7848H810.8v-.76H813.88l1.5445,1.57v1.57Z" transform="translate(-278 -39.3556)" fill="#fff" fill-opacity="0" stroke="#000" stroke-linejoin="round" stroke-width="2"/><path id="Saint_Joseph" data-name="Saint Joseph" d="M550.126,514.2334l-12.1053-56.0018-30.0546-31.4071L493.4731,414.11l-4.408-2.3877L519.27,369.5788l8.9829-6.7623,28.9193-19.8694,17.2062-12.3307,8.2818-4.792,1.5361,1.5695.7764,1.5611v2.3543h1.5445v2.3543h.76v2.3543l.7764,1.57,1.5111,1.5945.768,1.57,1.5445,1.5611h.7681l1.5445,1.57v-2.3542h2.3042l-.7764,1.57v1.57l1.5528.7848v1.57h1.5445l2.3041,1.5612v1.57l.7681.7847h3.0806v.7681h2.3209v1.57H603.44v1.57l.76.7848,3.0889,1.5612v1.57h1.5362l.7764.7931v1.57l.768,1.5612,1.5445.7848v1.5945l2.3125,1.5612v.7847h2.3126l1.5361.7848v.7764h2.3792l.76,1.5779h1.5444l.7764.7847v1.57l1.5445.7847v1.5612h1.5361l.7681,1.57h1.5445l1.5444.7681,1.5529,1.5611.768,1.57,1.5278.8349h4.6251v.7681h2.3209v1.57l.7764.7848h3.8486v.7931h6.9376v-.7931h2.3042v.7931h1.5445v2.3459l.7764.7848h1.5445l.6929,1.511h3.089v.8349h4.625l1.5362.7764v.7931l1.5444.7847h2.1623l-18.8593,18.517-42.761,41.8427-25.3043,25.1791Z" transform="translate(-278 -39.3556)" fill="#fff" fill-opacity="0" stroke="#000" stroke-linejoin="round" stroke-width="2"/><path id="Saint_Lucy" data-name="Saint Lucy" d="M290.571,214.48l-.7764-1.57v-5.485l-1.5445-.8348-.768-1.5528v-4.7169h-.7681v-3.8988H285.17v-1.57l-1.5444-.7764v-1.57l-.7681-1.5779-1.5361-.7764v-2.3293h-.7764v-2.3542l.7764-1.57-1.5445-.768V179.2h.7681l.7764-1.5611v-2.3543h-.7764v-4.742l1.5444-2.3459h1.5362v-5.485h-.7681v-4.6918l-.7681-1.5695h-.768v-8.6157h-.7764v-6.2781h.7764v-3.1307h-.7764l-.7681-1.57v-6.278h.7681v-3.1307h-.7681V124.3H279V120.376h.7764l.7681-1.5946v-3.1056l1.5444-.7764v-.7931l1.5362-.7765h2.3209l.768-1.57v-1.57l2.3042-1.5695v-1.5278l.7681-1.57,1.5361-.7848.7764-1.5695,1.5445-1.5612V99.9973l.768-1.5779,1.5362-.7764.7764-1.5612v-1.57l1.5528-.7764V92.158l.7681-.8348h1.5361l2.3209-2.3459v-.8349l3.0722-3.1307,2.3126-4.6334,1.5444-.8349,2.3126-2.3542V74.9017l1.5361-.7931,1.5445-3.1307V65.4846h.7764v-2.346h3.8486l1.5445-2.3543h3.8487V58.43l.7764-.7848h2.3125v-.7847h5.3931l2.3126-2.3627,1.5445-2.3543h4.6167v.7848h3.857V51.3756l1.5361-.7848v-1.57h4.6251v.7848h3.0806l.7764-.7848V47.46h1.5445l1.5361-.8348.768-1.57,1.5445-.7764V42.7516l2.3126-1.6113H366.1v1.6113l1.5362.7764v.8348h3.0889V43.528h2.3042v-.7764h4.6167V41.14l.7764-.7847h7.7057l1.5445,2.3626,1.5361.7847H391.53l1.5361,1.57v.7931l1.5445,1.5695,1.5445-.8349h3.8486l1.5361,1.57v1.5695l.7765,1.5695h.768v2.3459h3.089l1.5444.7931,1.5195,2.4211h2.3042v.7848h2.3041l1.5445,1.5695V63.147h1.5445l.7764-1.5695L419.2549,60h3.0806v3.139h-.76v2.346l.76.8348h1.5528l1.5445.7848,1.5361,2.3459,1.5445-.7764h2.3042l.7764.768v3.1474l.768.7848h2.3209v.7848h2.3042l1.5445,1.57v1.57l1.5361.8348,1.5445,1.5612.7764,1.5695h1.5361l1.5445,1.57v1.5695l1.5445.7847v1.57l2.2958,1.4694v.8348l1.5445,1.57,1.5277.768v.8349l1.5445.7764,1.5445,1.5778v1.57l.76.768h6.17V97.76h3.0889v.7764h3.857l3.0889,3.1474,1.5362.7847.7764,1.5612,1.5445.7848v3.9238l1.5361.8348v.7764l3.0889,3.1391h1.5361v1.57l1.5445.7764v1.5695l1.5445.7848v4.7l-1.5445.7847H482.453l-.7764.7848v2.3626h3.089l.7764.7931v2.3543h3.0806l.7764.7764v3.1391l1.5278,1.5695,1.5444.7764.7681,1.5695v1.57l-.7681,1.57-2.3208,1.57H485.542l-2.3209,1.5612v1.4276l-7.5137,2.3877-58.6315,21.0633-70.3612,25.2876L296.3064,213.32Z" transform="translate(-278 -39.3556)" fill="#fff" fill-opacity="0" stroke="#000" stroke-linejoin="round" stroke-width="2"/><path id="Saint_Michael" data-name="Saint Michael" d="M397.3067,768.7208l-1.1521-1.57h-3.857l-1.5445-.7847-.7681-1.5779h-3.857v.8348h-1.5445v-2.3626l-1.5361-1.5695h1.5361l.7764-1.5612h2.3126v-.7848l2.3125-1.57v-3.9071H391.53l1.5361-2.3626v-2.4127h-.768V731.0608l-1.5445-2.3543H389.2v-1.57l-.7681-.7764h-1.5361V724.791H385.36l-.7764-1.5528H382.271v-1.57h-1.5445l-1.5278-.8349-.7764-1.5695-2.3208-2.3459h-3.84v-.7848h-2.3125l-1.5445-.7847v-.7848h-4.625v.7848l-1.5362.7847h-3.0973l-.768-.7847v-1.57h-1.5361l-.7681-.7764v-1.4777l-1.5445-.8348-.768-1.5528h-2.3126l-1.5361-.7931-.7848-1.5445-1.5444-.7764h-2.2959v-.7931l-1.5444-.7764h-3.8571v-.7931h-2.3041v-.7681h-2.3126v-1.57l-.7764-.7931h-1.5361l-.7681-.7764v-1.5863H329.091l-.7764-1.5695v-8.6073h1.5361l.7764.7848V691.13h.7681v3.9155h.7764v2.3626l.7681.7764H336.02l.7764-.7764v-2.3626l-1.5445-2.3459v-9.4088l.7681-.7848h3.0889v-.7847h2.3293v-.7848h3.0722l1.5445,1.57v-7.0545l.768-1.5695h-4.625v1.5695l-1.5361.7848h-5.3932l-.7764-.7848v-2.3292h-.7681v-2.3459l1.5445-2.3459h1.5445v-.8349l1.5278-.7764h3.0973v-.8348l1.5277-.7765.7765-1.57v-3.0388h-.7765V657.46h-.768v-2.3459h-1.5361v-2.3627h-.7765v-3.1724l-.7764-.7764h-1.5277v-2.3543l-.7681-1.5611-1.5445-.7932-.7764-1.5695h-1.5361v-2.3459h-.7681l-2.3209-2.3459v-.8349l-2.3041-1.57V633.091l-.7765-.8348h-1.5444l-.76-1.5612v-3.139h-.7765v-2.2708h-.768l-.7764-1.57v-4.7h-.7681v-3.1307l-1.5445-3.1391h-1.5444v-2.3543h-.7681v-3.1307h.7681v-1.5778h.768v-4.1075l3.9906-1.0352L380.91,577.8824l-.0584-.7264,20.0364-7.2214,63.315-24.2106,4.5416-1.67,3.0055,12.1721,7.7474,33.3022,17.59,70.8955,11.6295,50.834,1.01,3.3394-1.1938.6011-38.4031,18.2582Z" transform="translate(-278 -39.3556)" fill="#fff" fill-opacity="0" stroke="#000" stroke-linejoin="round" stroke-width="2"/><path id="Saint_Peter" data-name="Saint Peter" d="M301.2989,350.9116h-1.4944l-.7681-1.57v-3.1307l.76-1.57h.7764v-4.7086l.7681-1.5695-1.5445-3.1224.7764-.7931V329.74h.7681l.7848-1.5612V325.04h-.7848l-1.5445-3.139v-1.57l-.76-.7848V317.985H297.5l-1.5445-3.1306v-6.2781h-.76v-3.9238h.76V299.944h.7764v-6.2781l-1.5361-.7681v-3.139l.76-1.57h.7764v-3.9239H297.5V280.35l-1.5445-.7848v-2.3543h-.76v-2.3125H294.42v-4.6918l1.5361-.7931v-5.485h.7764v-2.3877H297.5v-4.7l1.5445-.7931v-8.6323h-.7681v-3.1391h-4.6251v-4.7l1.5445-2.3543H297.5l1.5445.7931v-2.3542h-3.089l-.76-1.57v-2.3543l-.7764-.7848v-6.27h-1.5445l-.768-.7848v-3.139h-.7765v-3.139l-.76-1.57v-1.57l5.7354-1.16,50.4083-19.0847,70.3529-25.4546,58.6315-21.0633,7.5137-2.3876,1.5445.935v1.57l.7764.7848h2.3125l3.0723,1.5611,3.0889,3.1307v1.5779l1.5361,1.5612-8.9329,11.93-19.9445,28.243-32.0082,46.5512-16.0292,75.9714-.5092.1336-46.0086,12.9736-10.5442,1.2022-29.3116,8.3485-30.9646,8.9078Z" transform="translate(-278 -39.3556)" fill="#fff" fill-opacity="0" stroke="#000" stroke-linejoin="round" stroke-width="2"/><path id="Saint_Philip" data-name="Saint Philip" d="M769.9338,768.0446l-26.7569-32.4673-19.018-24.7033-37-46.1839L668.5,641.3978l-3.44-2.9554,1.319-.6344L679.97,606.0836l25.88-25.2125L774.5,513.19l42.4522-40.4318.7764.4592.768,1.57,3.857,3.9238v1.5612h1.5445l.7514.8348v1.57l1.5444.7848v1.5612l2.3126,1.57v.7847h1.5444l2.3126,2.3543.768,1.57v2.3292h2.3126v-.8349l2.3125-2.3543h1.5445v2.3543h-.7681l-2.3125,2.3459v3.1391l.768.7848h1.5445l.768.7847v2.3543l.7764,1.57h.7766v3.9155l1.5361,2.3543h3.0806l.7764.7764h3.8487l1.5444,3.1474v1.5695h1.5445l.768,1.57h10.0182l-.7764,1.5695v1.57l1.5445.7764v.7931h6.9376v-.7931h3.0806v-.7764h3.857v-1.57l3.0889-1.5695h6.1612l.7681.7764v7.0628h.7764v2.3543h2.3042l1.5444-2.3543h4.6168v3.1307l2.3125,1.5779,1.5445,3.1307v2.3626h.7764v2.3459h.768V539.07h.7764v4.7h1.5362l1.5444,2.346h2.3042l.7764-1.57h2.3126v.8349H921l-.7764.7764v1.57h-3.089l-1.5361,1.5695-.7681,1.57v1.5695l-.7764,1.5612h-.768v4.7l1.5444,1.57h2.3042l2.3209,1.5695v3.1391h-.7764v3.9154l-.7681,1.5444h-.7764v2.3626h-.76v3.1307h-.7764v3.1391h-.768v4.7l-.7764,1.5695h-.7681v3.9155l-1.5361.8348v2.3459l-1.5445.8349-2.3126,2.2123-.768,1.57v3.9239h-.7764v4.7h-2.3042L902.5,607.2524l.7681,1.5612v3.9155l-.7681,1.5695-1.5444.7764v1.5695l-1.5362.7848v1.5695l-2.3209,1.5612v1.6362l-.7764.7848H894.794v3.9154l-1.5444.7848v3.9238l-2.3042,1.5278V637.04l-2.3209,2.3626-1.5362.7764v.7848l-1.5444.7847v3.1391l-1.5445,1.5611-3.0722,1.57v2.3542l-1.5445.7848v.7764l-1.5361.7848v1.57l-2.3209,1.5612-.7681,1.5778-1.5361.7848H871.677l-2.3208,1.5528-.7681,1.5612v1.57l-1.5444,1.5612h-1.5362v.8348l-1.5444.7764v3.1391l-.7764,1.57-3.0723,1.5111-2.3126,4.7085v2.346h-.768v2.3542l-1.5445.7848v.7848l-2.3125,2.3793h-.7681v4.7l-1.5361,2.3543h-1.5362l-1.5444,1.57v2.3459l-.7764,1.57-2.3042,2.346h-3.089l-.768-1.5278h-2.3126v.7847h-1.5444l-2.3126,1.57-.7764,1.5695v2.3376H833.14l-.768,1.5695v3.139h-.7681v4.7h-.768v2.3543h-.7681l-3.0806,3.1307v5.485l-.7764,1.5612-2.2958,1.5778h-1.5445l-1.5529,1.5278-1.5277.7847v.7932H817.729l-1.5528,1.5611v2.3459l-.76.7932H813.872l-.7764,1.57-4.625,4.7-1.5362.7848H805.39v.7764h-1.5445l-.768,1.5695-2.296,2.3542-1.5444,2.3543H794.612l-1.5361.7764v.7931h-1.5612l-1.5278.7764-.7847,1.57h-1.5445v.7931h-1.5444l-1.5278.768v.7931l-2.3209,2.346-1.5278.7847h-1.5445l-2.3125,2.3543v.7764h-1.5445l-1.5444,1.57-1.5362.7848Z" transform="translate(-278 -39.3556)" fill="#fff" fill-opacity="0" stroke="#000" stroke-linejoin="round" stroke-width="2"/><path id="Saint_Thomas" data-name="Saint Thomas" d="M380.8518,577.156l-2.88-41.0078-2.73-33.7864-3.5231-45.7164,42.5774-42.135,4.6918-17.0977L423.68,383.095l2.2791-5.41,6.8959,3.4145,12.5227,5.5685,11.354,6.779,17.9743,9.9347,12.9068,7.5554,1.4527.7931,4.408,2.3877,14.46,12.7231,30.0546,31.4071L550.0926,514.25,468.67,544.0459l-4.5416,1.67-63.24,24.219Z" transform="translate(-278 -39.3556)" fill="#fff" fill-opacity="0" stroke="#000" stroke-linejoin="round" stroke-width="2"/></svg>